<svg width="19" height="20" viewBox="0 0 19 20" fill="none" xmlns="http://www.w3.org/2000/svg">
<g id="Delete">
<path id="Fill 1" fill-rule="evenodd" clip-rule="evenodd" d="M9.2466 19.9999C7.8916 19.9999 6.5706 19.9849 5.2636 19.9579C3.5916 19.9249 2.4346 18.8409 2.2456 17.1289C1.9306 14.2889 1.3916 7.59491 1.3866 7.52791C1.3526 7.11491 1.6606 6.75291 2.0736 6.71991C2.4806 6.70891 2.8486 6.99491 2.8816 7.40691C2.8866 7.47491 3.4246 14.1459 3.7366 16.9639C3.8436 17.9369 4.3686 18.4389 5.2946 18.4579C7.7946 18.5109 10.3456 18.5139 13.0956 18.4639C14.0796 18.4449 14.6116 17.9529 14.7216 16.9569C15.0316 14.1629 15.5716 7.47491 15.5776 7.40691C15.6106 6.99491 15.9756 6.70691 16.3846 6.71991C16.7976 6.75391 17.1056 7.11491 17.0726 7.52791C17.0666 7.59591 16.5246 14.3069 16.2126 17.1219C16.0186 18.8689 14.8646 19.9319 13.1226 19.9639C11.7896 19.9869 10.5036 19.9999 9.2466 19.9999Z" fill="#130F26"/>
<path id="Fill 3" fill-rule="evenodd" clip-rule="evenodd" d="M17.708 4.98926H0.75C0.336 4.98926 0 4.65326 0 4.23926C0 3.82526 0.336 3.48926 0.75 3.48926H17.708C18.122 3.48926 18.458 3.82526 18.458 4.23926C18.458 4.65326 18.122 4.98926 17.708 4.98926Z" fill="#130F26"/>
<path id="Fill 5" fill-rule="evenodd" clip-rule="evenodd" d="M14.4405 4.98924C13.3025 4.98924 12.3145 4.17824 12.0905 3.06224L11.8475 1.84624C11.7965 1.66124 11.5855 1.50024 11.3455 1.50024H7.11246C6.87246 1.50024 6.66146 1.66124 6.60046 1.89224L6.36746 3.06224C6.14446 4.17824 5.15546 4.98924 4.01746 4.98924C3.60346 4.98924 3.26746 4.65324 3.26746 4.23924C3.26746 3.82524 3.60346 3.48924 4.01746 3.48924C4.44346 3.48924 4.81346 3.18524 4.89746 2.76724L5.14046 1.55124C5.38746 0.619244 6.19446 0.000244141 7.11246 0.000244141H11.3455C12.2635 0.000244141 13.0705 0.619244 13.3075 1.50624L13.5615 2.76724C13.6445 3.18524 14.0145 3.48924 14.4405 3.48924C14.8545 3.48924 15.1905 3.82524 15.1905 4.23924C15.1905 4.65324 14.8545 4.98924 14.4405 4.98924Z" fill="#130F26"/>
</g>
</svg>
